<?xml version="1.0" standalone="no"?>
<!DOCTYPE svg PUBLIC "-//W3C//DTD SVG 20010904//EN"
 "http://www.w3.org/TR/2001/REC-SVG-20010904/DTD/svg10.dtd">
<svg version="1.0" xmlns="http://www.w3.org/2000/svg"
 width="160.000000pt" height="160.000000pt" viewBox="0 0 160.000000 160.000000"
 preserveAspectRatio="xMidYMid meet">
<metadata>
Created by potrace 1.14, written by Peter Selinger 2001-2017
</metadata>
<g transform="translate(0.000000,160.000000) scale(0.100000,-0.100000)"
fill="#000000" stroke="none">
<path d="M652 1550 c-125 -26 -238 -87 -327 -175 -106 -104 -159 -196 -190
-329 -14 -60 -15 -240 -1 -295 37 -153 128 -290 253 -383 40 -29 73 -55 73
-58 0 -3 -16 -23 -35 -45 -50 -57 -116 -156 -112 -169 5 -16 82 -35 182 -45
94 -10 546 -6 625 4 63 9 150 34 150 44 0 13 -53 82 -113 148 -32 33 -57 63
-57 65 0 3 21 20 48 38 95 68 188 171 206 228 4 12 11 22 16 22 4 0 10 10 13
22 3 13 15 50 27 83 41 110 35 301 -14 434 -64 172 -229 328 -416 391 -73 25
-254 36 -328 20z"/>
</g>
</svg>
