<svg
  width="350"
  height="100"
  viewBox="0 0 350 100"
  fill="none"
  xmlns="http://www.w3.org/2000/svg"
>
  <path
    d="M28.075 78.216c4.306-5.023 7.37-9.597 9.194-13.723 2.482-5.592 3.813-14.173 3.992-25.744.06-3.857.09-7.504.09-10.943 0-3.468-.06-5.755-.18-6.862-.12-1.136-.403-2.018-.852-2.646-.807-1.046-2.78-1.719-5.92-2.018v-3.902h23.456v3.902c-1.615.21-2.9.449-3.857.718-.927.269-1.63.717-2.108 1.345-.718.987-1.076 3.753-1.076 8.297 0 4.515.03 8.79.09 12.827.09 4.006.283 7.564.582 10.674.3 3.11.733 5.875 1.301 8.297a35.46 35.46 0 0 0 2.332 6.772c1.734 3.708 4.74 8.043 9.015 13.006 4.066-5.142 6.921-9.792 8.566-13.948 2.272-5.77 3.453-14.59 3.543-26.46.03-4.007.045-7.685.045-11.033 0-3.379-.045-5.532-.135-6.458-.09-.927-.359-1.66-.807-2.198-.777-.927-2.796-1.54-6.055-1.839v-3.902H92.21v3.902c-3.11.24-5.008.867-5.696 1.884-.568.867-.852 3.707-.852 8.521 0 4.784-.15 9.523-.448 14.217-.3 4.694-.793 8.925-1.48 12.692-.688 3.738-1.585 7.086-2.691 10.046-1.077 2.93-2.422 5.606-4.037 8.028-2.93 4.485-7.22 8.79-12.871 12.917-9.06-7.923-15.054-16.49-17.985-25.698-3.408 9.986-9.433 18.552-18.074 25.698-5.74-4.246-10.03-8.551-12.871-12.917-4.635-7.026-7.385-17.281-8.252-30.766-.3-4.694-.449-8.955-.449-12.782 0-3.857-.045-6.309-.134-7.355-.09-1.047-.344-1.869-.763-2.467-.688-.927-2.556-1.6-5.606-2.018v-3.902h22.963v3.902c-3.26.3-5.308.912-6.145 1.839-.448.538-.717 1.27-.807 2.198-.09.926-.134 3.08-.134 6.458 0 3.348.014 7.026.044 11.032.03 4.007.15 7.595.36 10.764.238 3.17.597 6.01 1.076 8.522a42.417 42.417 0 0 0 2.107 7.175c1.615 4.067 4.485 8.716 8.611 13.948ZM103.556 8.925l8.162-8.028 7.983 8.028-7.983 8.117-8.162-8.117Zm-3.723 68.35 1.57-.225c1.286-.18 2.332-.359 3.14-.538.807-.21 1.435-.568 1.883-1.076.778-.927 1.166-3.05 1.166-6.369V38.66c0-3.409-.359-5.457-1.076-6.145a4.764 4.764 0 0 0-2.601-1.345c-1.017-.18-2.377-.344-4.082-.493V26.82h24.533v3.857c-1.705.179-3.065.358-4.082.538-1.016.18-1.793.523-2.332 1.031-.867.808-1.3 2.945-1.3 6.414v30.407c0 3.409.269 5.427.807 6.055a3.877 3.877 0 0 0 1.973 1.255c.808.21 1.869.42 3.185.628l1.749.27v3.722H99.833v-3.722ZM171.636 83.284c-.239-1.525-1.315-2.287-3.229-2.287h-35.969l-.986-2.826 33.367-45.88h-16.28c-3.558 0-6.204.927-7.938 2.78-.837.868-1.555 1.93-2.153 3.185l-1.839 4.216h-4.44l4.665-17.94h4.26c.299 1.525 1.525 2.288 3.678 2.288h31.618l.987 2.825-32.919 45.836h16.684c4.335 0 7.385-.793 9.149-2.377 1.345-1.196 2.616-3.708 3.812-7.535h4.35l-2.421 17.715h-4.396ZM200.07 35.161c-.508.927-.762 2.004-.762 3.23 0 1.196.568 2.646 1.704 4.35l-3.049 1.839c-3.529-.598-6.085-2.078-7.67-4.44-.568-.808-.852-1.854-.852-3.14 0-1.285.524-2.616 1.57-3.991 1.046-1.405 2.512-2.631 4.395-3.678 4.126-2.272 9.329-3.408 15.608-3.408 10.225 0 16.579 2.96 19.06 8.88.778 1.853 1.166 3.902 1.166 6.144v28.12c0 3.469.329 5.561.987 6.279a4.634 4.634 0 0 0 2.377 1.345c.957.21 2.228.39 3.812.539v3.767h-11.122c-2.213 0-4.739.12-7.58.359-5.83.538-10.315.807-13.454.807-3.14 0-5.905-.419-8.297-1.256-2.392-.837-4.351-1.943-5.876-3.319-2.96-2.66-4.44-6.054-4.44-10.18 0-4.455 2.587-8.566 7.759-12.334 6.219-4.604 15.144-7.026 26.775-7.265V39.96c0-6.219-4.141-9.328-12.423-9.328-4.724 0-7.953 1.51-9.688 4.53Zm22.111 17.312h.09l-.09-.045v.045Zm0 0c-16.176.957-24.263 5.935-24.263 14.935 0 4.754 2.407 7.818 7.22 9.194 1.495.448 3.364.672 5.606.672 2.243 0 4.142-.12 5.696-.358 1.585-.27 2.796-.733 3.633-1.39.867-.658 1.435-1.555 1.704-2.692.269-1.166.404-2.66.404-4.484V52.473ZM278.601 43.1c1.674-1.615 2.511-4.067 2.511-7.355 0-1.615-.762-2.886-2.287-3.813-1.286-.747-3.244-1.12-5.875-1.12-5.681 0-8.522 1.853-8.522 5.56v34.085c0 1.286.12 2.348.359 3.185.269.837.852 1.51 1.749 2.018 1.555.897 5.143 1.435 10.764 1.615v3.722h-29.959v-3.678l.09-.044c3.528-.36 5.636-.853 6.323-1.48.718-.658 1.152-1.406 1.301-2.243.179-.867.269-2.018.269-3.453v-31.08c0-3.26-.329-5.278-.986-6.055a4.867 4.867 0 0 0-2.333-1.615c-.926-.299-2.152-.538-3.677-.717V26.82h9.283c3.678 0 6.294-.075 7.849-.225 1.555-.15 2.781-.254 3.678-.314 2.691-.239 4.873-.358 6.548-.358 1.704 0 3.453.134 5.247.403 1.794.27 3.378.733 4.754 1.39 3.02 1.436 4.53 3.663 4.53 6.683 0 2.422-.987 4.68-2.96 6.772-1.854 1.974-3.917 3.274-6.19 3.902l-2.466-1.973ZM336.59 29.197c-4.634-13.754-13.918-22.17-27.851-25.25L309.681 0c13.724 2.033 24.054 7.834 30.99 17.401 6.219 8.611 9.329 19.3 9.329 32.067 0 10.046-2.287 18-6.862 23.86-4.574 5.83-10.704 8.745-18.388 8.745-7.355 0-13.365-2.96-18.029-8.88-4.335-5.441-6.503-11.9-6.503-19.374 0-7.565 2.018-14.038 6.054-19.42 4.455-5.92 10.525-8.88 18.209-8.88 4.754 0 8.79 1.226 12.109 3.678Zm3.184 21.392c0-13.484-4.813-20.226-14.441-20.226-5.412 0-9.343 2.436-11.795 7.31-2.033 3.947-3.05 9.373-3.05 16.28 0 10.226 2.482 17.237 7.445 21.034 1.854 1.405 4.246 2.108 7.176 2.108 2.96 0 5.412-.673 7.355-2.018 1.944-1.346 3.453-3.2 4.53-5.561 1.854-4.097 2.78-10.405 2.78-18.927Z"
    fill="currentColor"></path>
</svg>
