<?xml version="1.0" standalone="no"?>
<!DOCTYPE svg PUBLIC "-//W3C//DTD SVG 20010904//EN"
 "http://www.w3.org/TR/2001/REC-SVG-20010904/DTD/svg10.dtd">
<svg version="1.0" xmlns="http://www.w3.org/2000/svg"
 width="230.000000pt" height="230.000000pt" viewBox="0 0 230.000000 230.000000"
 preserveAspectRatio="xMidYMid meet">
<metadata>
Created by potrace 1.14, written by Peter Selinger 2001-2017
</metadata>
<g transform="translate(0.000000,230.000000) scale(0.100000,-0.100000)"
fill="#000000" stroke="none">
<path d="M530 2059 c0 -4 -9 -6 -20 -4 -11 2 -22 -1 -25 -6 -4 -5 -10 -7 -15
-4 -5 3 -15 -1 -23 -9 -8 -8 -17 -12 -20 -9 -3 3 -13 -2 -22 -11 -9 -9 -23
-16 -31 -16 -8 0 -13 -4 -9 -9 3 -5 -4 -12 -15 -16 -11 -3 -20 -9 -20 -13 0
-4 -11 -19 -24 -33 -13 -15 -31 -45 -38 -68 -8 -23 -16 -39 -19 -37 -3 3 -4
-7 -3 -22 1 -15 -4 -33 -10 -41 -9 -12 -8 -13 3 -6 11 6 12 5 5 -6 -12 -19
-12 -31 -2 -46 5 -6 5 -14 1 -16 -7 -4 -9 -62 -3 -62 2 0 10 -43 13 -70 1 -11
5 -23 10 -26 4 -3 9 -16 12 -29 2 -13 13 -40 23 -61 11 -21 14 -36 8 -33 -6 3
-4 0 4 -8 9 -7 15 -19 14 -25 -1 -7 -2 -18 -3 -23 0 -6 -7 -9 -13 -8 -7 2 -12
-5 -12 -14 1 -10 -2 -16 -6 -13 -4 3 -20 -14 -36 -38 -16 -23 -31 -44 -34 -47
-4 -3 -14 -23 -24 -45 -11 -22 -24 -43 -30 -47 -7 -5 -6 -8 4 -8 12 0 12 -2 2
-8 -11 -8 -23 -46 -25 -79 0 -7 -4 -13 -8 -13 -4 0 -6 -9 -4 -20 2 -11 -1 -22
-6 -25 -5 -4 -7 -11 -3 -16 3 -5 0 -16 -6 -24 -8 -9 -8 -15 -2 -15 11 0 11
-18 -1 -37 -4 -6 -3 -14 3 -18 7 -4 7 -12 0 -26 -6 -10 -7 -19 -2 -19 5 0 9
-17 10 -37 1 -21 2 -47 2 -58 1 -10 4 -24 8 -30 4 -5 7 -19 7 -30 0 -11 3 -23
8 -26 6 -4 10 -15 11 -25 2 -22 48 -118 59 -122 4 -2 7 -9 7 -17 0 -7 7 -19
17 -26 9 -8 24 -27 35 -44 10 -16 18 -27 18 -24 0 3 21 -14 46 -37 25 -24 59
-49 75 -56 16 -7 29 -16 29 -20 0 -5 9 -8 20 -8 11 0 20 -4 20 -8 0 -9 113
-37 148 -36 12 0 22 -3 22 -6 0 -4 7 -7 15 -7 8 0 15 5 15 11 0 6 4 5 9 -2 11
-17 21 -17 32 0 7 11 9 11 9 -1 0 -11 3 -11 15 -1 12 10 15 10 15 -1 0 -9 3
-10 8 -4 9 12 42 16 42 5 0 -5 8 -7 18 -5 9 1 22 0 27 -4 6 -3 15 -6 20 -7 26
-3 55 -17 55 -27 0 -6 3 -7 7 -4 3 4 15 -1 26 -10 15 -13 18 -14 12 -3 -7 12
-5 12 11 -1 18 -16 71 -34 87 -31 4 1 7 -2 7 -7 0 -11 115 -9 126 2 4 4 17 7
28 7 12 0 30 7 40 15 10 8 23 12 27 9 5 -3 9 0 9 5 0 6 3 10 8 9 4 -1 17 3 28
10 12 6 24 8 28 5 3 -3 6 -2 6 4 0 10 35 24 73 28 9 2 20 4 25 5 19 6 38 4 44
-5 5 -6 8 -5 8 4 0 11 3 11 15 1 12 -10 15 -10 15 1 0 10 2 11 8 2 5 -8 13 -9
22 -3 8 5 21 5 32 -1 12 -7 18 -6 18 1 0 7 6 8 19 0 13 -7 22 -7 26 0 3 5 17
10 31 10 13 0 24 4 24 9 0 6 9 8 20 6 11 -2 20 1 20 7 0 5 7 8 15 4 8 -3 21 4
30 17 10 15 15 17 15 7 1 -12 4 -11 14 3 8 10 23 19 34 20 11 0 20 6 19 12 -1
5 4 9 11 7 6 -1 12 5 12 13 0 8 5 15 11 15 13 0 89 77 82 84 -3 2 5 9 16 16
12 6 19 15 16 21 -4 5 -1 9 5 9 6 0 9 4 6 9 -3 5 0 11 7 14 7 3 25 36 39 73
46 119 44 115 53 178 3 21 8 43 12 49 4 6 1 7 -7 2 -9 -6 -11 -4 -4 6 10 16
13 139 3 139 -4 0 -5 13 -4 29 1 16 -6 48 -16 70 -12 29 -14 41 -6 41 8 0 7 3
-2 9 -8 5 -10 14 -6 21 5 9 4 11 -3 6 -11 -6 -17 12 -13 37 0 4 -3 7 -9 7 -5
0 -10 7 -10 15 0 8 -5 15 -11 15 -5 0 -8 4 -4 10 3 5 -3 18 -15 30 -11 11 -21
25 -23 31 -1 6 -21 30 -43 54 -38 39 -41 46 -28 63 7 11 10 22 7 26 -3 3 -1 6
5 6 7 0 11 3 11 8 -1 4 4 23 12 42 7 19 12 38 11 43 -1 4 2 7 7 7 6 0 8 9 6
20 -2 11 0 20 5 20 4 0 7 11 5 25 -1 14 2 28 7 31 4 3 5 10 2 16 -4 6 0 14 7
19 9 6 10 9 2 9 -8 0 -9 9 -3 30 7 25 6 30 -8 30 -13 0 -13 2 4 15 12 9 14 14
5 15 -7 0 -11 6 -8 14 3 7 -1 25 -8 40 -10 19 -11 24 -2 19 9 -5 9 -3 0 9 -7
8 -10 18 -6 21 3 4 1 7 -5 7 -7 0 -12 9 -12 20 0 24 -101 130 -124 130 -9 0
-16 4 -16 9 0 10 -45 27 -90 35 -14 3 -25 5 -25 6 0 7 -67 5 -71 -2 -3 -4 -14
-3 -25 2 -10 6 -19 7 -19 2 0 -5 -15 -8 -34 -7 -19 0 -34 -4 -33 -10 1 -5 -6
-9 -15 -7 -10 2 -18 -1 -18 -5 0 -5 -10 -10 -22 -10 -13 -1 -27 -8 -33 -16 -5
-8 -16 -12 -24 -9 -8 3 -11 0 -7 -7 4 -6 1 -11 -6 -11 -8 0 -29 -14 -47 -31
-29 -26 -39 -30 -70 -25 -58 9 -65 11 -80 20 -10 7 -12 6 -6 -4 6 -10 4 -11
-6 -4 -8 5 -25 10 -37 12 -17 2 -22 -1 -16 -10 6 -10 4 -10 -9 0 -19 16 -125
14 -146 -2 -12 -9 -13 -8 -7 2 7 11 4 12 -11 3 -11 -6 -23 -7 -27 -4 -3 3 -6
0 -6 -8 0 -11 -2 -11 -10 1 -7 11 -10 11 -10 2 0 -7 -4 -10 -10 -7 -5 3 -18 1
-29 -5 -16 -8 -22 -6 -31 10 -6 11 -15 20 -21 20 -6 0 -17 6 -24 13 -34 30
-43 35 -49 30 -3 -4 -6 -1 -6 5 0 7 -9 12 -20 12 -11 0 -20 5 -20 11 0 6 -7 8
-16 5 -8 -3 -13 -2 -10 3 5 8 -100 34 -121 30 -4 -1 -10 0 -13 1 -14 6 -80 5
-80 -1z"/>
</g>
</svg>
