<?xml version="1.0" standalone="no"?>
<!DOCTYPE svg PUBLIC "-//W3C//DTD SVG 20010904//EN"
 "http://www.w3.org/TR/2001/REC-SVG-20010904/DTD/svg10.dtd">
<svg version="1.0" xmlns="http://www.w3.org/2000/svg"
 width="160.000000pt" height="160.000000pt" viewBox="0 0 160.000000 160.000000"
 preserveAspectRatio="xMidYMid meet">
<metadata>
Created by potrace 1.14, written by Peter Selinger 2001-2017
</metadata>
<g transform="translate(0.000000,160.000000) scale(0.100000,-0.100000)"
fill="#000000" stroke="none">
<path d="M421 1350 c-143 -72 -265 -139 -270 -149 -10 -18 -21 -780 -11 -779
15 3 39 -16 33 -25 -3 -5 -1 -7 4 -4 12 8 104 -23 115 -38 4 -5 8 -6 8 -2 0 4
10 2 22 -5 13 -6 32 -13 43 -15 11 -2 22 -8 23 -13 2 -6 8 -8 13 -4 5 3 9 0 9
-6 0 -6 4 -9 8 -6 13 8 83 -19 75 -29 -5 -4 0 -5 9 -2 10 3 23 1 30 -6 7 -7
19 -12 26 -13 38 -3 43 -5 37 -13 -3 -6 4 -8 15 -6 11 2 26 -3 35 -11 8 -8 17
-14 20 -14 15 3 65 -13 65 -20 0 -5 7 -7 15 -4 8 4 15 2 15 -3 0 -5 10 -9 22
-10 11 -1 25 -8 29 -15 5 -7 9 -10 9 -6 0 3 20 0 44 -7 32 -10 47 -10 55 -2 6
6 11 8 11 4 0 -4 8 1 18 11 29 26 63 47 74 44 5 -1 7 2 4 7 -5 8 6 16 27 20 4
0 21 14 39 31 17 16 36 30 42 30 6 0 17 9 24 20 7 11 19 20 27 20 8 0 15 5 15
11 0 5 4 8 9 5 5 -3 11 1 15 9 3 8 12 15 20 15 7 0 16 7 20 15 3 8 12 15 20
15 7 0 16 7 20 15 3 8 12 15 20 15 8 0 16 3 18 8 7 17 61 51 71 45 6 -3 7 -1
3 5 -4 7 3 17 18 24 l26 11 0 381 c-1 318 -3 384 -15 400 -15 20 -60 31 -529
136 -99 22 -192 40 -207 40 -15 0 -144 -59 -288 -130z"/>
</g>
</svg>
